<svg xmlns="http://www.w3.org/2000/svg" shape-rendering="geometricPrecision" text-rendering="geometricPrecision" image-rendering="optimizeQuality" fill-rule="evenodd" clip-rule="evenodd" viewBox="0 0 512 89.454"><path fill-rule="nonzero" d="M72.303 57.242l4.72 27.67.018.144a3.891 3.891 0 01-2.726 4.222c-.949.29-2.01.215-2.954-.288L46.576 75.734 21.967 88.896c-1.714 1.044-3.971.582-5.154-1.061a3.866 3.866 0 01-.684-2.887l4.561-27.689L1.223 37.413a3.882 3.882 0 01-.442-5.163 3.876 3.876 0 012.559-1.518l27.218-3.897 12.55-24.7a3.889 3.889 0 014.68-1.941 3.871 3.871 0 012.259 1.944L62.48 26.837l27.095 3.896a3.899 3.899 0 013.33 3.799 3.872 3.872 0 01-1.099 2.76l-19.503 19.95zM177.076 57.242l4.72 27.67.018.144a3.89 3.89 0 01-2.725 4.222c-.95.29-2.01.215-2.955-.288L151.35 75.734l-24.61 13.162c-1.714 1.044-3.971.582-5.153-1.061a3.867 3.867 0 01-.685-2.887l4.561-27.689-19.467-19.846a3.883 3.883 0 01-.442-5.163 3.876 3.876 0 012.56-1.518l27.218-3.897 12.549-24.7a3.89 3.89 0 016.94.003l12.432 24.699 27.095 3.896a3.898 3.898 0 013.33 3.799 3.868 3.868 0 01-1.099 2.76l-19.503 19.95zM281.85 57.242l4.72 27.67.018.144a3.89 3.89 0 01-2.725 4.222c-.95.29-2.01.215-2.955-.288l-24.784-13.256-24.61 13.162c-1.714 1.044-3.971.582-5.153-1.061a3.862 3.862 0 01-.684-2.887l4.56-27.689-19.467-19.846a3.883 3.883 0 01-.442-5.163 3.876 3.876 0 012.56-1.518l27.218-3.897 12.549-24.7a3.89 3.89 0 014.68-1.941 3.876 3.876 0 012.26 1.944l12.432 24.699 27.095 3.896a3.898 3.898 0 013.33 3.799 3.871 3.871 0 01-1.098 2.76l-19.504 19.95zM386.625 57.242l4.719 27.67.019.144a3.893 3.893 0 01-2.726 4.222c-.95.29-2.01.215-2.955-.288l-24.784-13.256-24.61 13.162c-1.714 1.044-3.971.582-5.153-1.061a3.862 3.862 0 01-.684-2.887l4.56-27.689-19.467-19.846a3.884 3.884 0 01-.442-5.163 3.876 3.876 0 012.56-1.518l27.218-3.897 12.549-24.7a3.89 3.89 0 014.68-1.941 3.876 3.876 0 012.26 1.944l12.433 24.699 27.095 3.896a3.897 3.897 0 013.329 3.799 3.871 3.871 0 01-1.098 2.76l-19.503 19.95z"/><path d="M491.398 57.242l4.72 27.67.018.144a3.893 3.893 0 01-2.726 4.223 3.87 3.87 0 01-2.954-.288l-24.785-13.257-24.609 13.162c-1.714 1.044-3.971.583-5.154-1.06a3.87 3.87 0 01-.684-2.888l4.561-27.688-19.468-19.847a3.883 3.883 0 01-.441-5.163 3.881 3.881 0 012.559-1.518l27.218-3.896 12.55-24.701a3.89 3.89 0 014.68-1.941 3.877 3.877 0 012.259 1.944l12.433 24.7 27.095 3.895a3.9 3.9 0 013.33 3.799 3.876 3.876 0 01-1.099 2.761l-19.503 19.949zM465.549 4.13l-.001.001.123-.241 13.345 26.51 29.1 4.183-20.887 21.364 5.052 29.618-26.61-14.233-.122.066V4.13z"/></svg>